<?xml version="1.0" encoding="UTF-8" standalone="no"?><svg xmlns="http://www.w3.org/2000/svg" xmlns:xlink="http://www.w3.org/1999/xlink" contentScriptType="application/ecmascript" contentStyleType="text/css" height="500px" preserveAspectRatio="none" style="width:810px;height:500px;background:#FFFFFF;" version="1.1" viewBox="0 0 810 500" width="810px" zoomAndPan="magnify"><defs><filter height="300%" id="frzku6lo7jy3n" width="300%" x="-1" y="-1"><feGaussianBlur result="blurOut" stdDeviation="2.0"/><feColorMatrix in="blurOut" result="blurOut2" type="matrix" values="0 0 0 0 0 0 0 0 0 0 0 0 0 0 0 0 0 0 .4 0"/><feOffset dx="4.0" dy="4.0" in="blurOut2" result="blurOut3"/><feBlend in="SourceGraphic" in2="blurOut3" mode="normal"/></filter></defs><g><ellipse cx="319.5" cy="16" fill="#000000" filter="url(#frzku6lo7jy3n)" rx="10" ry="10" style="stroke:none;stroke-width:1.0;"/><g id="FIRST_GO"><rect fill="#FEFECE" filter="url(#frzku6lo7jy3n)" height="50.2656" rx="12.5" ry="12.5" style="stroke:#A80036;stroke-width:1.5;" width="140" x="249.5" y="87"/><line style="stroke:#A80036;stroke-width:1.5;" x1="249.5" x2="389.5" y1="113.2969" y2="113.2969"/><text fill="#000000" font-family="sans-serif" font-size="14" lengthAdjust="spacing" textLength="69" x="285" y="104.9951">FIRST_GO</text><text fill="#000000" font-family="sans-serif" font-size="12" lengthAdjust="spacing" textLength="120" x="254.5" y="129.4355">Round &lt;= 10, Roll 1</text></g><g id="SECOND_GO"><rect fill="#FEFECE" filter="url(#frzku6lo7jy3n)" height="50.2656" rx="12.5" ry="12.5" style="stroke:#A80036;stroke-width:1.5;" width="141" x="342" y="214"/><line style="stroke:#A80036;stroke-width:1.5;" x1="342" x2="483" y1="240.2969" y2="240.2969"/><text fill="#000000" font-family="sans-serif" font-size="14" lengthAdjust="spacing" textLength="89" x="368" y="231.9951">SECOND_GO</text><text fill="#000000" font-family="sans-serif" font-size="12" lengthAdjust="spacing" textLength="121" x="347" y="256.4355">Round &lt;= 10, Roll 2</text></g><ellipse cx="408.5" cy="478" filter="url(#frzku6lo7jy3n)" rx="10" ry="10" style="stroke:#000000;stroke-width:1.0;fill:none;"/><ellipse cx="409" cy="478.5" fill="#000000" rx="6" ry="6" style="stroke:none;stroke-width:1.0;"/><g id="BONUS_GO"><rect fill="#FEFECE" filter="url(#frzku6lo7jy3n)" height="50.2656" rx="12.5" ry="12.5" style="stroke:#A80036;stroke-width:1.5;" width="325" x="7" y="341"/><line style="stroke:#A80036;stroke-width:1.5;" x1="7" x2="332" y1="367.2969" y2="367.2969"/><text fill="#000000" font-family="sans-serif" font-size="14" lengthAdjust="spacing" textLength="78" x="130.5" y="358.9951">BONUS_GO</text><text fill="#000000" font-family="sans-serif" font-size="12" lengthAdjust="spacing" textLength="305" x="12" y="383.4355">Round = 10, Roll 2 (STRIKE) or 3 (STRIKE or SPARE)</text></g><!--MD5=[9e3811aa9928d8c92bbebb3010f179ae]
link *start to FIRST_GO--><path d="M319.5,26.013 C319.5,38.698 319.5,62.409 319.5,81.57 " fill="none" id="*start-to-FIRST_GO" style="stroke:#A80036;stroke-width:1.0;"/><polygon fill="#A80036" points="319.5,86.84,323.5,77.84,319.5,81.84,315.5,77.84,319.5,86.84" style="stroke:#A80036;stroke-width:1.0;"/><!--MD5=[a30a1655b60e591f00936a4b3473a832]
link FIRST_GO to SECOND_GO--><path d="M279.476,137.214 C262.523,150.6 249.038,167.765 260.5,184 C270.121,197.629 303.709,210.268 336.872,219.887 " fill="none" id="FIRST_GO-to-SECOND_GO" style="stroke:#A80036;stroke-width:1.0;"/><polygon fill="#A80036" points="341.759,221.284,334.2052,214.9642,336.9516,219.9096,332.0062,222.6561,341.759,221.284" style="stroke:#A80036;stroke-width:1.0;"/><text fill="#000000" font-family="sans-serif" font-size="13" lengthAdjust="spacing" textLength="70" x="261.5" y="180.0669">[pins &lt; 10]</text><!--MD5=[337a19c82c851bff9e340172280d9c40]
link SECOND_GO to FIRST_GO--><path d="M394.624,213.973 C379.201,193.243 356.903,163.273 340.607,141.369 " fill="none" id="SECOND_GO-to-FIRST_GO" style="stroke:#A80036;stroke-width:1.0;"/><polygon fill="#A80036" points="337.431,137.101,339.5937,146.7095,340.4154,141.1126,346.0123,141.9344,337.431,137.101" style="stroke:#A80036;stroke-width:1.0;"/><text fill="#000000" font-family="sans-serif" font-size="13" lengthAdjust="spacing" textLength="189" x="373.5" y="180.0669">[Go to next round, no SPARE]</text><!--MD5=[337a19c82c851bff9e340172280d9c40]
link SECOND_GO to FIRST_GO--><path d="M483.224,229.576 C536.38,220.313 595.587,201.861 567.5,167 C546.046,140.372 459.449,126.183 394.584,119.138 " fill="none" id="SECOND_GO-to-FIRST_GO-1" style="stroke:#A80036;stroke-width:1.0;"/><polygon fill="#A80036" points="389.56,118.602,398.0853,123.5335,394.5318,119.132,398.9333,115.5786,389.56,118.602" style="stroke:#A80036;stroke-width:1.0;"/><text fill="#000000" font-family="sans-serif" font-size="13" lengthAdjust="spacing" textLength="200" x="576.5" y="180.0669">[Go to next round, with SPARE]</text><!--MD5=[5e7c08d6e466d46553eb96bcc17cc908]
link FIRST_GO to FIRST_GO--><path d="M389.67,101.925 C409.374,102.366 424.5,105.725 424.5,112 C424.5,117.687 412.078,120.978 395.082,121.874 " fill="none" id="FIRST_GO-to-FIRST_GO" style="stroke:#A80036;stroke-width:1.0;"/><polygon fill="#A80036" points="389.67,122.075,398.8123,125.738,394.6666,121.8893,398.5152,117.7435,389.67,122.075" style="stroke:#A80036;stroke-width:1.0;"/><text fill="#000000" font-family="sans-serif" font-size="13" lengthAdjust="spacing" textLength="237" x="430.5" y="116.5669">[STRIKE, pins = 10, go to next round]</text><!--MD5=[61ad025ae4562cf2753f0c8594ea5d15]
link SECOND_GO to *end--><path d="M453.246,264.008 C511.744,301.496 607.476,376.059 559.5,438 C542.739,459.6394 458.267,471.4244 423.492,475.423 " fill="none" id="SECOND_GO-to-*end" style="stroke:#A80036;stroke-width:1.0;"/><polygon fill="#A80036" points="418.355,475.9982,427.7447,478.9704,423.3239,475.4411,426.8532,471.0203,418.355,475.9982" style="stroke:#A80036;stroke-width:1.0;"/><text fill="#000000" font-family="sans-serif" font-size="13" lengthAdjust="spacing" textLength="230" x="572.5" y="370.5669">[Round 10 and no STRIKE or SPARE]</text><!--MD5=[2b55b88a16bb4d3740802fe550f36725]
link SECOND_GO to BONUS_GO--><path d="M365.647,264.101 C324.13,285.458 263.628,316.58 220.817,338.603 " fill="none" id="SECOND_GO-to-BONUS_GO" style="stroke:#A80036;stroke-width:1.0;"/><polygon fill="#A80036" points="216.209,340.973,226.042,340.4139,220.6554,338.6862,222.3831,333.2997,216.209,340.973" style="stroke:#A80036;stroke-width:1.0;"/><text fill="#000000" font-family="sans-serif" font-size="13" lengthAdjust="spacing" textLength="52" x="307.5" y="307.0669">[SPARE]</text><!--MD5=[5c925c663736f119b6e55035bcaa8487]
link FIRST_GO to BONUS_GO--><path d="M271.147,137.043 C241.865,154.281 206.594,180.377 187.5,214 C166.056,251.761 164.737,303.335 166.535,335.383 " fill="none" id="FIRST_GO-to-BONUS_GO" style="stroke:#A80036;stroke-width:1.0;"/><polygon fill="#A80036" points="166.875,340.742,170.2987,331.5074,166.5593,335.752,162.3147,332.0125,166.875,340.742" style="stroke:#A80036;stroke-width:1.0;"/><text fill="#000000" font-family="sans-serif" font-size="13" lengthAdjust="spacing" textLength="135" x="188.5" y="243.5669">[STRIKE on round 10]</text><!--MD5=[22809a946365bb48691c4326216a9074]
link BONUS_GO to BONUS_GO--><path d="M332.209,355.812 C353.159,357.579 367,360.975 367,366 C367,370.594 355.436,373.826 337.449,375.697 " fill="none" id="BONUS_GO-to-BONUS_GO" style="stroke:#A80036;stroke-width:1.0;"/><polygon fill="#A80036" points="332.209,376.188,341.5434,379.3295,337.1871,375.7208,340.7958,371.3645,332.209,376.188" style="stroke:#A80036;stroke-width:1.0;"/><text fill="#000000" font-family="sans-serif" font-size="13" lengthAdjust="spacing" textLength="149" x="373" y="370.5669">[Round 10 was STRIKE]</text><!--MD5=[68c77367040e53dc63c1f57874f835da]
link BONUS_GO to *end--><path d="M208.964,391.1628 C233.826,405.8089 266.901,424.2562 297.5,438 C331.167,453.1217 372.605,466.3259 394.073,472.7862 " fill="none" id="BONUS_GO-to-*end" style="stroke:#A80036;stroke-width:1.0;"/><polygon fill="#A80036" points="399.084,474.2804,391.6021,467.8756,394.2924,472.8518,389.3163,475.5421,399.084,474.2804" style="stroke:#A80036;stroke-width:1.0;"/><text fill="#000000" font-family="sans-serif" font-size="13" lengthAdjust="spacing" textLength="256" x="298.5" y="434.0669">[Round 10, roll 3 after STRIKE or SPARE]</text><!--MD5=[8ef9513e200d80c460d38a3b09443407]
@startuml
[*] - -> FIRST_GO
FIRST_GO : Round <= 10, Roll 1
FIRST_GO - -> SECOND_GO : [pins < 10]
FIRST_GO - -> FIRST_GO : [STRIKE, pins = 10, go to next round]
 
SECOND_GO : Round <= 10, Roll 2
SECOND_GO  - -> FIRST_GO : [Go to next round, no SPARE]
SECOND_GO  - -> FIRST_GO : [Go to next round, with SPARE]
SECOND_GO- -> [*] : [Round 10 and no STRIKE or SPARE]
SECOND_GO - -> BONUS_GO : [SPARE]
 
BONUS_GO : Round = 10, Roll 2 (STRIKE) or 3 (STRIKE or SPARE)
FIRST_GO  -> BONUS_GO : [STRIKE on round 10]
BONUS_GO  - -> BONUS_GO : [Round 10 was STRIKE]
BONUS_GO  - -> [*] : [Round 10, roll 3 after STRIKE or SPARE]
@enduml

PlantUML version 1.2021.15beta8(Unknown compile time)
(GPL source distribution)
Java Runtime: Java(TM) SE Runtime Environment
JVM: Java HotSpot(TM) 64-Bit Server VM
Default Encoding: UTF-8
Language: en
Country: US
--></g></svg>